<svg width="1440" height="851" viewBox="0 0 1440 851" fill="none" xmlns="http://www.w3.org/2000/svg">
<line class="line__horizontal" y1="679.335" x2="1440" y2="679.335" stroke="#9AD8CB" stroke-opacity="0.05" stroke-width="1.32955"/>
<line class="line__horizontal" y1="339.335" x2="1440" y2="339.335" stroke="#9AD8CB" stroke-opacity="0.05" stroke-width="1.32955"/>
<line class="line__horizontal" y1="169.335" x2="1440" y2="169.335" stroke="#9AD8CB" stroke-opacity="0.05" stroke-width="1.32955"/>
<line class="line__horizontal" y1="509.335" x2="1440" y2="509.335" stroke="#9AD8CB" stroke-opacity="0.05" stroke-width="1.32955"/>
<line class="line__horizontal" y1="84.3352" x2="1440" y2="84.3352" stroke="#9AD8CB" stroke-opacity="0.05" stroke-width="1.32955"/>
<line class="line__horizontal" y1="254.335" x2="1440" y2="254.335" stroke="#9AD8CB" stroke-opacity="0.05" stroke-width="1.32955"/>
<line class="line__horizontal" y1="764.335" x2="1440" y2="764.335" stroke="#9AD8CB" stroke-opacity="0.05" stroke-width="1.32955"/>
<line class="line__horizontal" y1="424.335" x2="1440" y2="424.335" stroke="#9AD8CB" stroke-opacity="0.05" stroke-width="1.32955"/>
<line class="line__horizontal" y1="594.335" x2="1440" y2="594.335" stroke="#9AD8CB" stroke-opacity="0.05" stroke-width="1.32955"/>
<line class="line__vertical" x1="1190.66" y1="2.147e-08" x2="1190.66" y2="851" stroke="#9AD8CB" stroke-opacity="0.05" stroke-width="1.32955"/>
<line class="line__vertical" x1="510.665" y1="2.147e-08" x2="510.665" y2="851" stroke="#9AD8CB" stroke-opacity="0.05" stroke-width="1.32955"/>
<line class="line__vertical" x1="169.665" y1="2.147e-08" x2="169.665" y2="851" stroke="#9AD8CB" stroke-opacity="0.05" stroke-width="1.32955"/>
<line class="line__vertical" x1="1361.66" y1="2.147e-08" x2="1361.66" y2="851" stroke="#9AD8CB" stroke-opacity="0.05" stroke-width="1.32955"/>
<line class="line__vertical" x1="1020.66" y1="2.147e-08" x2="1020.66" y2="851" stroke="#9AD8CB" stroke-opacity="0.05" stroke-width="1.32955"/>
<line class="line__vertical" x1="339.665" y1="2.147e-08" x2="339.665" y2="851" stroke="#9AD8CB" stroke-opacity="0.05" stroke-width="1.32955"/>
<line class="line__vertical" x1="680.665" y1="2.147e-08" x2="680.665" y2="851" stroke="#9AD8CB" stroke-opacity="0.05" stroke-width="1.32955"/>
<line class="line__vertical" x1="1106.66" y1="2.147e-08" x2="1106.66" y2="851" stroke="#9AD8CB" stroke-opacity="0.05" stroke-width="1.32955"/>
<line class="line__vertical" x1="765.665" y1="2.147e-08" x2="765.665" y2="851" stroke="#9AD8CB" stroke-opacity="0.05" stroke-width="1.32955"/>
<line class="line__vertical" x1="84.6648" y1="2.147e-08" x2="84.6647" y2="851" stroke="#9AD8CB" stroke-opacity="0.05" stroke-width="1.32955"/>
<line class="line__vertical" x1="1276.66" y1="2.147e-08" x2="1276.66" y2="851" stroke="#9AD8CB" stroke-opacity="0.05" stroke-width="1.32955"/>
<line class="line__vertical" x1="851.665" y1="2.147e-08" x2="851.665" y2="851" stroke="#9AD8CB" stroke-opacity="0.05" stroke-width="1.32955"/>
<line class="line__vertical" x1="935.665" y1="2.147e-08" x2="935.665" y2="851" stroke="#9AD8CB" stroke-opacity="0.05" stroke-width="1.32955"/>
<line class="line__vertical" x1="425.665" y1="2.147e-08" x2="425.665" y2="851" stroke="#9AD8CB" stroke-opacity="0.05" stroke-width="1.32955"/>
<line class="line__vertical" x1="255.665" y1="2.147e-08" x2="255.665" y2="851" stroke="#9AD8CB" stroke-opacity="0.05" stroke-width="1.32955"/>
<line class="line__vertical" x1="595.665" y1="2.147e-08" x2="595.665" y2="851" stroke="#9AD8CB" stroke-opacity="0.05" stroke-width="1.32955"/>
</svg>
